<?xml version="1.0" encoding="UTF-8"?>
<svg width="32px" height="32px" viewBox="0 0 32 32" version="1.1" xmlns="http://www.w3.org/2000/svg" xmlns:xlink="http://www.w3.org/1999/xlink">
    <!-- Generator: Sketch 54.1 (76490) - https://sketchapp.com -->
    <title>newFaviconFailed</title>
    <desc>Created with Sketch.</desc>
    <defs>
        <rect id="path-1" x="0" y="0" width="27" height="23.5"></rect>
    </defs>
    <g id="Page-1" stroke="none" stroke-width="1" fill="none" fill-rule="evenodd">
        <g id="newFaviconFailed">
            <g id="Group">
                <mask id="mask-2" fill="white">
                    <use xlink:href="#path-1"></use>
                </mask>
                <g id="Rectangle"></g>
                <g id="faviconLogo" mask="url(#mask-2)" fill-rule="nonzero">
                    <polygon id="path4625" fill="#2E4761" points="0.0987609571 0.0928111295 0.0987609571 6.46108816 6.8752394 6.46108816 10.2635272 6.46108816 10.2635272 12.8293196 10.2635272 16.0134809 10.2635272 19.1975965 10.2635272 25.5658743 10.2635272 31.9341514 17.0400544 31.9341514 17.0400544 25.5658743 17.0400544 19.1975965 17.0400544 12.8293196 17.0400544 6.46104242 20.4282936 6.46104242 27.2048215 6.46104242 27.2048215 0.0928111295 20.4282936 0.0928111295 13.6517666 0.0928111295 6.8752394 0.0928111295"></polygon>
                    <polygon id="path4777" fill="#2E4761" points="0.0987434547 0.0927954704 6.87526347 6.4610657 0.0987434547 6.4610657"></polygon>
                    <polygon id="path4779" fill="#537AA1" points="0.0987434547 0.0927954704 3.48700299 3.27693061 6.87526347 0.0927954704"></polygon>
                    <polygon id="path4781" fill="#1B2A39" points="6.87526347 0.0927954704 8.56939323 1.68486306 5.18113276 4.86899815 3.48700299 3.27693061"></polygon>
                    <polygon id="path4783" fill="#263C52" points="8.56939323 1.68486306 10.263523 3.27693061 6.87526347 6.4610657 5.18113276 4.86899815"></polygon>
                    <polygon id="path4785" fill="#2E4761" points="13.6517835 0.0927954704 13.6517835 6.4610657 6.87526347 0.0927954704"></polygon>
                    <polygon id="path4787" fill="#537AA1" points="10.263523 3.27693061 13.6517835 6.4610657 6.87526347 6.4610657"></polygon>
                    <polygon id="path4789" fill="#537AA1" points="20.4283025 0.0927955679 13.6517835 6.4610657 13.6517835 0.0927954704"></polygon>
                    <path d="M17.040043,3.27693061 L17.0400421,6.46106508 L10.2635221,12.8293353 L10.263523,6.4610657 C10.263523,6.4610657 13.6517835,6.4610657 13.6517835,6.4610657 L17.040043,3.27693061 Z" id="path4791" fill="#263C52"></path>
                    <polygon id="path4793" fill-opacity="0.99558859" fill="#1D2D3D" points="20.4283025 0.0927955679 23.8165621 3.27693007 22.1224323 4.86899762 18.7341728 1.68486306"></polygon>
                    <polygon id="path4795" fill="#2E4761" points="18.7341728 1.68486306 22.1224323 4.86899762 20.4283025 6.46106508 17.0400421 6.46106508 17.040043 3.27693061"></polygon>
                    <polygon id="path4797" fill="#263C52" points="27.2048226 0.092794903 23.8165621 3.27693007 20.4283025 0.0927955679"></polygon>
                    <polygon id="path4799" fill="#537AA1" points="27.2048226 0.092794903 27.2048226 6.46106517 20.4283025 6.46106508"></polygon>
                    <polygon id="path4801" fill="#537AA1" points="17.0400421 6.46106508 13.6517825 9.64520061 17.0400421 12.8293353"></polygon>
                    <polygon id="path4803" fill="#1B2A39" points="13.6517825 9.64520061 17.0400421 12.8293353 15.3459123 14.4214027 11.9576528 11.237268"></polygon>
                    <path d="M11.9576528,11.237268 C11.9576528,11.237268 15.3459123,14.4214027 15.3459123,14.4214027 L13.6517825,16.0134701 L10.2635221,16.0134701 L10.2635221,12.8293353 L11.9576528,11.237268 Z" id="path4805" fill="#2E4761"></path>
                    <polygon id="path4807" fill-opacity="0.86323529" fill="#537AA1" points="10.2635221 16.0134701 13.6517825 16.0134701 10.2635221 19.1976057"></polygon>
                    <polygon id="path4809" fill="#263C52" points="17.0400421 12.8293353 10.2635221 19.1976057 17.0400421 19.1976057"></polygon>
                    <polygon id="path4813" fill="#263C52" points="10.2635221 19.1976057 13.6517825 22.3817404 10.2635221 25.565877"></polygon>
                    <polygon id="path4815" fill="#2E4761" points="10.2635221 19.1976057 17.0400421 19.1976057 17.0400421 25.5658761"></polygon>
                    <polygon id="path4817" fill-opacity="0.99509804" fill="#1C2B3B" points="13.6517825 22.3817404 15.3459123 23.9738087 11.9576518 27.1579443 10.2635221 25.565877"></polygon>
                    <polygon id="path4819" fill="#537AA1" points="15.3459123 23.9738087 17.0400421 25.5658761 13.6517816 28.7500117 11.9576518 27.1579443"></polygon>
                    <polygon id="path4821" fill="#263C52" points="17.0400421 25.5658761 17.0400421 31.9341464 13.6517816 28.7500117"></polygon>
                    <polygon id="path4823" fill="#2E4761" points="10.2635221 25.565877 17.0400421 31.9341464 10.2635221 31.9341464"></polygon>
                </g>
            </g>
            <rect id="Rectangle" x="0" y="0" width="32" height="32"></rect>
            <polygon id="Shape" fill="#D32F2F" fill-rule="nonzero" points="31.1081481 19.5908571 29.8933333 18.2857143 25.034074 23.5062857 20.1748148 18.2857143 18.96 19.5908571 23.8192592 24.8114286 18.96 30.0320001 20.1748148 31.337143 25.034074 26.1165714 29.8933333 31.337143 31.1081481 30.0320001 26.2488889 24.8114286"></polygon>
        </g>
    </g>
</svg>